<svg xmlns="http://www.w3.org/2000/svg" viewBox="0 0 617.19 494.13"><defs><style>.cls-1{fill:#0071bc;}.cls-2{fill:none;}.cls-2,.cls-3{stroke:#000;stroke-miterlimit:10;stroke-width:4px;}.cls-3{fill:#fff;}.cls-4{font-size:128.93px;font-family:LucidaConsole, Lucida Console;}</style></defs><title>Asset 1</title><g id="Layer_2" data-name="Layer 2"><g id="Layer_1-2" data-name="Layer 1"><path class="cls-1" d="M615.19,247.06c0,12.88-23.07,23.34-25.56,35.66s14.69,31,9.82,42.74-30.16,12.73-37.1,23.49c-6.8,10.54,2.85,34-5.78,43.5-8.39,9.27-32.75,2.17-42.7,10.37-9.65,7.94-7.19,33.18-18.15,40-10.61,6.6-32.22-6.71-43.93-1.3-11.35,5.24-15.13,30.34-27.37,34.36-11.89,3.9-29.86-14-42.47-11.35-12.24,2.58-21.4,26.25-34.22,27.56-12.44,1.28-26.25-20-39.13-20s-26.69,21.29-39.14,20c-12.81-1.31-22-25-34.22-27.56-12.6-2.66-30.58,15.25-42.46,11.35-12.25-4-16-29.12-27.38-34.36-11.7-5.41-33.32,7.9-43.93,1.3-11-6.8-8.5-32-18.15-40-9.95-8.2-34.31-1.1-42.7-10.38-8.63-9.54,1-32.95-5.78-43.49-6.94-10.77-32.28-11.84-37.1-23.49s12.34-30.27,9.82-42.74S2,259.94,2,247.06s23.07-23.33,25.56-35.65c2.52-12.47-14.69-31-9.82-42.74s30.17-12.73,37.11-23.49c6.79-10.54-2.86-34,5.77-43.5,8.39-9.27,32.75-2.17,42.7-10.37,9.65-7.94,7.19-33.18,18.15-40,10.62-6.59,32.23,6.71,43.93,1.31,11.35-5.24,15.13-30.34,27.37-34.36,11.89-3.9,29.86,14,42.47,11.35C247.48,27,256.65,3.37,269.46,2.06c12.44-1.28,26.25,20,39.14,20s26.69-21.28,39.13-20c12.81,1.31,22,25,34.22,27.56,12.61,2.66,30.58-15.25,42.47-11.35,12.24,4,16,29.12,27.37,34.36,11.71,5.4,33.32-7.9,43.94-1.31,10.95,6.81,8.49,32.05,18.14,40,10,8.2,34.31,1.1,42.7,10.37,8.63,9.55-1,33,5.78,43.5,6.94,10.77,32.28,11.84,37.1,23.49s-12.33,30.27-9.82,42.74C592.12,223.73,615.19,234.19,615.19,247.06Z"/><path class="cls-2" d="M615.19,247.06c0,12.88-23.07,23.34-25.56,35.66s14.69,31,9.82,42.74-30.16,12.73-37.1,23.49c-6.8,10.54,2.85,34-5.78,43.5-8.39,9.27-32.75,2.17-42.7,10.37-9.65,7.94-7.19,33.18-18.15,40-10.61,6.6-32.22-6.71-43.93-1.3-11.35,5.24-15.13,30.34-27.37,34.36-11.89,3.9-29.86-14-42.47-11.35-12.24,2.58-21.4,26.25-34.22,27.56-12.44,1.28-26.25-20-39.13-20s-26.69,21.29-39.14,20c-12.81-1.31-22-25-34.22-27.56-12.6-2.66-30.58,15.25-42.46,11.35-12.25-4-16-29.12-27.38-34.36-11.7-5.41-33.32,7.9-43.93,1.3-11-6.8-8.5-32-18.15-40-9.95-8.2-34.31-1.1-42.7-10.38-8.63-9.54,1-32.95-5.78-43.49-6.94-10.77-32.28-11.84-37.1-23.49s12.34-30.27,9.82-42.74S2,259.94,2,247.06s23.07-23.33,25.56-35.65c2.52-12.47-14.69-31-9.82-42.74s30.17-12.73,37.11-23.49c6.79-10.54-2.86-34,5.77-43.5,8.39-9.27,32.75-2.17,42.7-10.37,9.65-7.94,7.19-33.18,18.15-40,10.62-6.59,32.23,6.71,43.93,1.31,11.35-5.24,15.13-30.34,27.37-34.36,11.89-3.9,29.86,14,42.47,11.35C247.48,27,256.65,3.37,269.46,2.06c12.44-1.28,26.25,20,39.14,20s26.69-21.28,39.13-20c12.81,1.31,22,25,34.22,27.56,12.61,2.66,30.58-15.25,42.47-11.35,12.24,4,16,29.12,27.37,34.36,11.71,5.4,33.32-7.9,43.94-1.31,10.95,6.81,8.49,32.05,18.14,40,10,8.2,34.31,1.1,42.7,10.37,8.63,9.55-1,33,5.78,43.5,6.94,10.77,32.28,11.84,37.1,23.49s-12.33,30.27-9.82,42.74C592.12,223.73,615.19,234.19,615.19,247.06Z"/><ellipse class="cls-3" cx="308.6" cy="247.06" rx="276" ry="174.5"/><text class="cls-4" transform="translate(82.64 237.65) scale(0.81 1)">Michael</text><text class="cls-4" transform="translate(177.35 375.65) scale(0.81 1)">Lund</text></g></g></svg>